HIERARCHY
ROOT Hips
{
	OFFSET 0.000000 0.000000 0.000000
	CHANNELS 6 Xposition Yposition Zposition Zrotation Yrotation Xrotation 
	JOINT LHipJoint
	{
		OFFSET 0.000000 0.000000 0.000000
		CHANNELS 3 Zrotation Yrotation Xrotation
		JOINT LeftUpLeg
		{
			OFFSET 1.363060 -1.794630 0.839290
			CHANNELS 3 Zrotation Yrotation Xrotation
			JOINT LeftLeg
			{
				OFFSET 2.448110 -6.726130 0.000000
				CHANNELS 3 Zrotation Yrotation Xrotation
				JOINT LeftFoot
				{
					OFFSET 2.562200 -7.039590 0.000000
					CHANNELS 3 Zrotation Yrotation Xrotation
					JOINT LeftToeBase
					{
						OFFSET 0.157640 -0.433110 2.322550
						CHANNELS 3 Zrotation Yrotation Xrotation
						End Site
						{
							OFFSET 0.000000 0.000000 0.000000
						}
					}
				}
			}
		}
	}
	JOINT RHipJoint
	{
		OFFSET 0.000000 0.000000 0.000000
		CHANNELS 3 Zrotation Yrotation Xrotation
		JOINT RightUpLeg
		{
			OFFSET -1.305520 -1.794630 0.839290
			CHANNELS 3 Zrotation Yrotation Xrotation
			JOINT RightLeg
			{
				OFFSET -2.542530 -6.985550 0.000000
				CHANNELS 3 Zrotation Yrotation Xrotation
				JOINT RightFoot
				{
					OFFSET -2.568260 -7.056230 0.000000
					CHANNELS 3 Zrotation Yrotation Xrotation
					JOINT RightToeBase
					{
						OFFSET -0.164730 -0.452590 2.363150
						CHANNELS 3 Zrotation Yrotation Xrotation
						End Site
						{
							OFFSET 0.000000 0.000000 0.000000
						}
					}
				}
			}
		}
	}
	JOINT LowerBack
	{
		OFFSET 0.000000 0.000000 0.000000
		CHANNELS 3 Zrotation Yrotation Xrotation
		JOINT Spine
		{
			OFFSET 0.028270 2.035590 -0.193380
			CHANNELS 3 Zrotation Yrotation Xrotation
			JOINT Spine1
			{
				OFFSET 0.056720 2.048850 -0.042750
				CHANNELS 3 Zrotation Yrotation Xrotation
				JOINT Neck
				{
					OFFSET 0.000000 0.000000 0.000000
					CHANNELS 3 Zrotation Yrotation Xrotation
					JOINT Neck1
					{
						OFFSET -0.054170 1.746240 0.172020
						CHANNELS 3 Zrotation Yrotation Xrotation
						JOINT Head
						{
							OFFSET 0.104070 1.761360 -0.123970
							CHANNELS 3 Zrotation Yrotation Xrotation
							End Site
							{
								OFFSET 0.000000 0.000000 0.000000
							}
						}
					}
				}
				JOINT LeftShoulder
				{
					OFFSET 0.000000 0.000000 0.000000
					CHANNELS 3 Zrotation Yrotation Xrotation
					JOINT LeftArm
					{
						OFFSET 3.362410 1.200890 -0.311210
						CHANNELS 3 Zrotation Yrotation Xrotation
						JOINT LeftForeArm
						{
							OFFSET 4.983000 -0.000000 -0.000000
							CHANNELS 3 Zrotation Yrotation Xrotation
							JOINT LeftHand
							{
								OFFSET 3.483560 -0.000000 -0.000000
								CHANNELS 3 Zrotation Yrotation Xrotation
								JOINT LeftFingerBase
								{
									OFFSET 0.000000 0.000000 0.000000
									CHANNELS 3 Zrotation Yrotation Xrotation
									JOINT LeftHandIndex1
									{
										OFFSET 0.715260 -0.000000 -0.000000
										CHANNELS 3 Zrotation Yrotation Xrotation
										End Site
										{
											OFFSET 0.000000 0.000000 0.000000
										}
									}
								}
								JOINT LThumb
								{
									OFFSET 0.000000 0.000000 0.000000
									CHANNELS 3 Zrotation Yrotation Xrotation
									End Site
									{
										OFFSET 0.000000 0.000000 0.000000
									}
								}
							}
						}
					}
				}
				JOINT RightShoulder
				{
					OFFSET 0.000000 0.000000 0.000000
					CHANNELS 3 Zrotation Yrotation Xrotation
					JOINT RightArm
					{
						OFFSET -3.136600 1.374050 -0.404650
						CHANNELS 3 Zrotation Yrotation Xrotation
						JOINT RightForeArm
						{
							OFFSET -5.241900 -0.000000 -0.000000
							CHANNELS 3 Zrotation Yrotation Xrotation
							JOINT RightHand
							{
								OFFSET -3.444170 -0.000000 -0.000000
								CHANNELS 3 Zrotation Yrotation Xrotation
								JOINT RightFingerBase
								{
									OFFSET 0.000000 0.000000 0.000000
									CHANNELS 3 Zrotation Yrotation Xrotation
									JOINT RightHandIndex1
									{
										OFFSET -0.622530 -0.000000 -0.000000
										CHANNELS 3 Zrotation Yrotation Xrotation
										End Site
										{
											OFFSET 0.000000 0.000000 0.000000
										}
									}
								}
								JOINT RThumb
								{
									OFFSET 0.000000 0.000000 0.000000
									CHANNELS 3 Zrotation Yrotation Xrotation
									End Site
									{
										OFFSET 0.000000 0.000000 0.000000
									}
								}
							}
						}
					}
				}
			}
		}
	}
}
MOTION
Frames: 5
Frame Time: 0.008333
-4.843009 15.564747 -1.557781 -6.301313 67.532112 24.145698 -8.171449 -2.324284 -1.290421 -5.956967 3.457862 -72.461829 -1.529513 4.279778 48.735451 0.836486 2.479544 -4.140618 0.361100 -0.000000 -31.690200 11.313384 0.581123 -5.918550 8.840030 -7.623245 -32.927350 0.889233 -4.537755 64.154944 0.523028 8.538405 -16.729760 -1.198700 -0.000000 -60.906700 -1.949357 0.069912 11.111861 -1.061842 0.478202 -0.939789 -5.317305 0.553577 -1.166121 11.991059 -12.430192 -8.179446 -1.386723 -0.066530 -0.586507 0.000000 0.000000 0.000000 5.210377 13.143525 1.267982 -73.217180 33.135591 14.391526 -179.733663 -80.215663 179.996882 1.439470 1.546389 0.017390 0.018632 0.175295 0.000000 0.000000 0.000000 0.000000 0.000000 0.000000 0.000000 6.641148 -5.295533 0.323948 63.568245 -1.339984 22.627215 178.990975 74.311942 -179.995626 0.184131 1.901265 0.003959 0.034932 -0.403936 0.000000 0.000000 0.000000 0.000000 0.000000 0.000000 0.000000 
-4.670215 15.507511 -1.536279 -6.503070 66.469912 23.479934 -8.212220 -2.368798 -1.561231 -6.082820 4.405168 -72.404225 -1.378490 4.540702 51.365910 0.957642 3.090485 -5.161946 0.333400 -0.000000 -30.769600 11.463323 0.578152 -5.792227 8.301437 -7.380743 -33.047610 0.553354 -4.666321 66.232865 0.504034 8.061323 -15.774699 -1.045400 -0.000000 -60.243900 -2.193909 0.046577 11.167771 -1.124978 0.458408 -0.940831 -5.413623 0.539380 -1.193496 11.996355 -12.297256 -8.140303 -1.445931 -0.071763 -0.571826 0.000000 0.000000 0.000000 4.893443 13.064227 1.264157 -72.974213 32.152094 13.929258 -179.722239 -80.277343 179.996718 1.449238 1.510529 0.017132 0.014698 0.179234 0.000000 0.000000 0.000000 0.000000 0.000000 0.000000 0.000000 6.819000 -5.150348 0.310204 64.288135 -1.875912 22.176748 179.059014 75.160582 -179.994729 0.350527 2.000315 0.007737 0.026851 -0.402683 0.000000 0.000000 0.000000 0.000000 0.000000 0.000000 0.000000 
-4.501220 15.454150 -1.512168 -6.601259 65.425306 22.938823 -8.249504 -2.394862 -1.819976 -6.272542 5.341393 -72.279987 -1.256963 4.776035 53.745296 1.080180 3.703185 -6.369632 0.272500 0.000000 -30.265300 11.602056 0.584306 -5.667634 7.804545 -7.149243 -33.279718 0.217103 -4.793692 68.345097 0.439172 7.277509 -14.997355 -0.869000 0.000000 -58.695200 -2.431117 0.012464 11.209504 -1.188324 0.426746 -0.944291 -5.520335 0.513349 -1.219263 11.987773 -12.138097 -8.091649 -1.515763 -0.077910 -0.555004 0.000000 0.000000 0.000000 4.520681 12.958680 1.265054 -72.613382 30.992483 13.451465 -179.711470 -80.456414 179.996537 1.468589 1.517839 0.017481 0.009447 0.182443 0.000000 0.000000 0.000000 0.000000 0.000000 0.000000 0.000000 7.027459 -4.995141 0.294060 65.117735 -2.409993 21.591669 179.133884 76.127726 -179.993955 0.499277 2.141430 0.011617 0.019027 -0.402168 0.000000 0.000000 0.000000 0.000000 0.000000 0.000000 0.000000 
-4.336299 15.405623 -1.485778 -6.619590 64.413175 22.500619 -8.283934 -2.403995 -2.060060 -6.493836 6.234783 -72.083801 -1.161616 4.983077 55.857208 1.205024 4.314289 -7.727466 0.174200 -0.000000 -30.209400 11.728107 0.600850 -5.551333 7.361067 -6.945550 -33.614971 -0.112495 -4.919332 70.461445 0.330257 6.204805 -14.432990 -0.685300 0.000000 -56.257600 -2.650137 -0.033308 11.240015 -1.249592 0.382119 -0.948116 -5.636659 0.474386 -1.239353 11.965184 -11.958623 -8.035431 -1.595871 -0.084892 -0.536708 0.000000 0.000000 0.000000 4.102559 12.831518 1.271431 -72.141635 29.643797 12.962130 -179.702820 -80.777289 179.996294 1.507572 1.583206 0.018938 0.002627 0.184607 0.000000 0.000000 0.000000 0.000000 0.000000 0.000000 0.000000 7.270386 -4.841079 0.274949 66.047565 -2.927733 20.868141 179.215602 77.219819 -179.993435 0.610105 2.325641 0.015101 0.011978 -0.402257 0.000000 0.000000 0.000000 0.000000 0.000000 0.000000 0.000000 
-4.175687 15.362667 -1.457563 -6.581461 63.444078 22.141839 -8.316884 -2.398893 -2.277019 -6.716264 7.059437 -71.810318 -1.087933 5.160231 57.703477 1.333181 4.923745 -9.185419 0.037700 -0.000000 -30.577100 11.840313 0.628606 -5.448551 6.981405 -6.781461 -34.042602 -0.428864 -5.042785 72.551133 0.181281 4.886751 -14.107181 -0.504200 0.000000 -52.990600 -2.840298 -0.090855 11.263361 -1.306482 0.324239 -0.950492 -5.761272 0.422167 -1.251387 11.928097 -11.766633 -7.972752 -1.685394 -0.092611 -0.517297 0.000000 0.000000 0.000000 3.646236 12.680090 1.283190 -71.570718 28.111924 12.456192 -179.697892 -81.251793 179.995938 1.574110 1.712192 0.021704 -0.005845 0.185591 0.000000 0.000000 0.000000 0.000000 0.000000 0.000000 0.000000 7.549664 -4.700926 0.253706 67.062492 -3.412668 20.011295 179.303858 78.446457 -179.993308 0.660409 2.547278 0.017689 0.006300 -0.402622 0.000000 0.000000 0.000000 0.000000 0.000000 0.000000 0.000000 
